<svg xmlns="http://www.w3.org/2000/svg" xmlns:xlink="http://www.w3.org/1999/xlink" width="500" zoomAndPan="magnify" viewBox="0 0 375 374.999991" height="500" preserveAspectRatio="xMidYMid meet" version="1.0"><defs><g/><clipPath id="9f1ea329d8"><path d="M 37.5 37.5 L 337.5 37.5 L 337.5 337.5 L 37.5 337.5 Z M 37.5 37.5 " clip-rule="nonzero"/></clipPath><clipPath id="abf3f3b178"><path d="M 187.5 37.5 C 104.65625 37.5 37.5 104.65625 37.5 187.5 C 37.5 270.34375 104.65625 337.5 187.5 337.5 C 270.34375 337.5 337.5 270.34375 337.5 187.5 C 337.5 104.65625 270.34375 37.5 187.5 37.5 Z M 187.5 37.5 " clip-rule="nonzero"/></clipPath></defs><g clip-path="url(#9f1ea329d8)"><g clip-path="url(#abf3f3b178)"><path fill="#49243e" d="M 37.5 37.5 L 337.5 37.5 L 337.5 337.5 L 37.5 337.5 Z M 37.5 37.5 " fill-opacity="1" fill-rule="nonzero"/></g></g><g fill="#ecb176" fill-opacity="1"><g transform="translate(93.037336, 199.25519)"><g><path d="M 8.203125 -10.828125 C 11.160156 -10.941406 13.40625 -11.296875 14.9375 -11.890625 C 16.46875 -12.492188 17.671875 -13.78125 18.546875 -15.75 C 19.421875 -17.71875 19.859375 -20.835938 19.859375 -25.109375 L 19.859375 -87.9375 C 19.859375 -94.0625 20.078125 -98.984375 20.515625 -102.703125 L 8.203125 -102.21875 L 8.203125 -114.84375 L 55.296875 -114.84375 L 55.296875 -104.015625 C 52.335938 -103.910156 50.09375 -103.554688 48.5625 -102.953125 C 47.03125 -102.347656 45.828125 -101.0625 44.953125 -99.09375 C 44.078125 -97.125 43.640625 -94.007812 43.640625 -89.75 L 43.640625 -26.90625 C 43.640625 -21 43.421875 -16.1875 42.984375 -12.46875 L 64.96875 -12.46875 C 71.53125 -12.582031 76.613281 -14.90625 80.21875 -19.4375 C 83.832031 -23.976562 85.640625 -30.625 85.640625 -39.375 L 96.640625 -39.375 L 95.65625 0 L 8.203125 0 Z M 8.203125 -10.828125 "/></g></g></g><g fill="#916538" fill-opacity="1"><g transform="translate(124.719635, 310.853751)"><g><path d="M 50.140625 -118.78125 L 50.140625 -115.625 C 48.328125 -115.46875 47.191406 -115.238281 46.734375 -114.9375 C 46.285156 -114.644531 46.0625 -114.195312 46.0625 -113.59375 C 46.0625 -112.382812 52.765625 -100.566406 66.171875 -78.140625 C 79.722656 -55.554688 86.796875 -42.457031 87.390625 -38.84375 L 87.84375 -38.84375 L 87.84375 -109.75 C 87.84375 -111.40625 87.539062 -112.722656 86.9375 -113.703125 C 86.34375 -114.679688 84.988281 -115.320312 82.875 -115.625 L 82.875 -118.78125 L 113.59375 -118.78125 L 113.59375 -115.625 C 111.488281 -115.320312 110.132812 -114.71875 109.53125 -113.8125 C 108.925781 -112.914062 108.625 -111.5625 108.625 -109.75 L 108.625 -9.265625 C 108.625 -7.148438 108.882812 -5.675781 109.40625 -4.84375 C 109.9375 -4.019531 111.03125 -3.457031 112.6875 -3.15625 L 112.6875 0 L 79.71875 0 L 79.71875 -3.15625 C 82.582031 -3.613281 84.015625 -4.59375 84.015625 -6.09375 C 84.015625 -6.84375 83.144531 -8.722656 81.40625 -11.734375 C 79.675781 -14.753906 77.378906 -18.597656 74.515625 -23.265625 C 71.503906 -28.078125 68.269531 -33.269531 64.8125 -38.84375 C 61.351562 -44.414062 57.664062 -50.585938 53.75 -57.359375 C 49.832031 -63.984375 46.554688 -69.851562 43.921875 -74.96875 C 41.285156 -80.09375 39.441406 -84.160156 38.390625 -87.171875 L 37.9375 -87.171875 L 37.9375 -9.03125 C 37.9375 -7.226562 38.238281 -5.875 38.84375 -4.96875 C 39.445312 -4.0625 40.726562 -3.457031 42.6875 -3.15625 L 42.6875 0 L 11.96875 0 L 11.96875 -3.15625 C 14.070312 -3.457031 15.460938 -4.0625 16.140625 -4.96875 C 16.816406 -5.875 17.15625 -7.226562 17.15625 -9.03125 L 17.15625 -109.75 C 17.15625 -111.40625 16.851562 -112.722656 16.25 -113.703125 C 15.65625 -114.679688 14.53125 -115.320312 12.875 -115.625 L 12.875 -118.78125 Z M 50.140625 -118.78125 "/></g></g></g><g fill="#ecb176" fill-opacity="1"><g transform="translate(173.993175, 197.158863)"><g><path d="M 50.9375 2.65625 C 46.394531 2.65625 41.550781 1.9375 36.40625 0.5 C 31.269531 -0.9375 26.546875 -2.925781 22.234375 -5.46875 L 22.0625 -5.46875 L 22.5625 1.5 L 9.78125 1.5 L 9.78125 -37.328125 L 20.734375 -37.328125 C 22.171875 -28.253906 25.65625 -21.3125 31.1875 -16.5 C 36.71875 -11.695312 43.46875 -9.296875 51.4375 -9.296875 C 57.1875 -9.296875 61.941406 -10.816406 65.703125 -13.859375 C 69.460938 -16.898438 71.34375 -20.578125 71.34375 -24.890625 C 71.34375 -28.421875 70.097656 -31.457031 67.609375 -34 C 65.117188 -36.550781 62.351562 -38.546875 59.3125 -39.984375 C 56.269531 -41.421875 51.429688 -43.46875 44.796875 -46.125 C 32.628906 -50.988281 23.3125 -56.515625 16.84375 -62.703125 C 10.375 -68.898438 7.140625 -77.03125 7.140625 -87.09375 C 7.140625 -92.1875 8.410156 -97.140625 10.953125 -101.953125 C 13.492188 -106.765625 17.664062 -110.769531 23.46875 -113.96875 C 29.28125 -117.175781 36.773438 -118.78125 45.953125 -118.78125 C 50.710938 -118.78125 55.691406 -118.085938 60.890625 -116.703125 C 66.085938 -115.328125 70.398438 -113.367188 73.828125 -110.828125 L 74 -110.828125 L 73.328125 -117.625 L 86.265625 -117.625 L 86.265625 -78.96875 L 75.328125 -78.96875 C 73.890625 -88.039062 70.707031 -94.953125 65.78125 -99.703125 C 60.863281 -104.460938 54.585938 -106.84375 46.953125 -106.84375 C 41.972656 -106.84375 37.6875 -105.488281 34.09375 -102.78125 C 30.5 -100.070312 28.703125 -96.671875 28.703125 -92.578125 C 28.703125 -87.710938 30.75 -83.617188 34.84375 -80.296875 C 38.9375 -76.984375 45.847656 -73.332031 55.578125 -69.34375 C 66.742188 -64.925781 75.835938 -59.8125 82.859375 -54 C 89.890625 -48.195312 93.40625 -40.484375 93.40625 -30.859375 C 93.40625 -24.328125 91.632812 -18.519531 88.09375 -13.4375 C 84.550781 -8.351562 79.570312 -4.398438 73.15625 -1.578125 C 66.75 1.242188 59.34375 2.65625 50.9375 2.65625 Z M 50.9375 2.65625 "/></g></g></g></svg>