<svg xmlns="http://www.w3.org/2000/svg" xmlns:xlink="http://www.w3.org/1999/xlink" width="500" zoomAndPan="magnify" viewBox="0 0 375 374.999991" height="500" preserveAspectRatio="xMidYMid meet" version="1.0"><defs><g/><clipPath id="16834416ba"><path d="M 37.5 37.5 L 337.5 37.5 L 337.5 337.5 L 37.5 337.5 Z M 37.5 37.5 " clip-rule="nonzero"/></clipPath><clipPath id="3c697d0c2d"><path d="M 187.5 37.5 C 104.65625 37.5 37.5 104.65625 37.5 187.5 C 37.5 270.34375 104.65625 337.5 187.5 337.5 C 270.34375 337.5 337.5 270.34375 337.5 187.5 C 337.5 104.65625 270.34375 37.5 187.5 37.5 Z M 187.5 37.5 " clip-rule="nonzero"/></clipPath></defs><g clip-path="url(#16834416ba)"><g clip-path="url(#3c697d0c2d)"><path fill="#49243e" d="M 37.5 37.5 L 337.5 37.5 L 337.5 337.5 L 37.5 337.5 Z M 37.5 37.5 " fill-opacity="1" fill-rule="nonzero"/></g></g><g fill="#ecb176" fill-opacity="1"><g transform="translate(85.434935, 287.863503)"><g><path d="M 68.171875 -103.828125 C 63.835938 -109.378906 59.066406 -115.882812 53.859375 -123.34375 L 53.609375 -123.34375 L 54.125 -42.671875 C 54.125 -32.960938 53.773438 -25.15625 53.078125 -19.25 C 58.628906 -19.769531 65.132812 -20.03125 72.59375 -20.03125 L 72.59375 0 L 13.265625 0 L 13.265625 -17.171875 C 17.953125 -17.347656 21.507812 -17.910156 23.9375 -18.859375 C 26.363281 -19.816406 28.269531 -21.859375 29.65625 -24.984375 C 31.050781 -28.109375 31.75 -33.050781 31.75 -39.8125 L 31.21875 -139.484375 C 31.21875 -151.097656 31.566406 -158.898438 32.265625 -162.890625 L 12.484375 -162.109375 L 12.484375 -182.15625 L 53.34375 -182.15625 L 132.96875 -81.703125 C 140.257812 -72.160156 146.332031 -63.921875 151.1875 -56.984375 L 151.453125 -56.984375 L 151.453125 -139.484375 C 151.453125 -150.753906 151.710938 -158.554688 152.234375 -162.890625 L 132.71875 -162.109375 L 132.71875 -182.15625 L 192.046875 -182.15625 L 192.046875 -164.984375 C 187.359375 -164.804688 183.800781 -164.238281 181.375 -163.28125 C 178.945312 -162.332031 177.035156 -160.296875 175.640625 -157.171875 C 174.253906 -154.046875 173.5625 -149.101562 173.5625 -142.34375 L 173.5625 2.609375 L 151.453125 2.609375 Z M 68.171875 -103.828125 "/></g></g></g></svg>